<svg width="106" height="110" viewBox="0 0 106 110" fill="none" xmlns="http://www.w3.org/2000/svg">
<path d="M44.25 50.4375C44.25 51.7354 43.8651 53.0042 43.144 54.0834C42.4229 55.1626 41.398 56.0038 40.1989 56.5005C38.9997 56.9972 37.6802 57.1271 36.4072 56.8739C35.1342 56.6207 33.9649 55.9957 33.0471 55.0779C32.1293 54.1601 31.5043 52.9908 31.2511 51.7178C30.9979 50.4448 31.1278 49.1253 31.6245 47.9261C32.1212 46.727 32.9624 45.7021 34.0416 44.981C35.1208 44.2599 36.3896 43.875 37.6875 43.875C39.428 43.875 41.0972 44.5664 42.3279 45.7971C43.5586 47.0278 44.25 48.697 44.25 50.4375ZM68.3125 43.875C67.0146 43.875 65.7458 44.2599 64.6666 44.981C63.5874 45.7021 62.7462 46.727 62.2495 47.9261C61.7528 49.1253 61.6229 50.4448 61.8761 51.7178C62.1293 52.9908 62.7543 54.1601 63.6721 55.0779C64.5899 55.9957 65.7592 56.6207 67.0322 56.8739C68.3052 57.1271 69.6247 56.9972 70.8239 56.5005C72.023 56.0038 73.0479 55.1626 73.769 54.0834C74.4901 53.0042 74.875 51.7354 74.875 50.4375C74.875 48.697 74.1836 47.0278 72.9529 45.7971C71.7222 44.5664 70.053 43.875 68.3125 43.875ZM105.5 52.625V105.125C105.5 105.954 105.265 106.765 104.822 107.465C104.379 108.165 103.746 108.725 102.998 109.08C102.249 109.435 101.415 109.569 100.592 109.468C99.77 109.368 98.9932 109.035 98.3523 108.51L85.0852 97.6547L71.8125 108.51C71.0309 109.149 70.0523 109.499 69.0426 109.499C68.0329 109.499 67.0542 109.149 66.2727 108.51L53 97.6547L39.7273 108.51C38.9458 109.149 37.9671 109.499 36.9574 109.499C35.9477 109.499 34.9691 109.149 34.1875 108.51L20.9148 97.6547L7.64766 108.51C7.00677 109.035 6.22996 109.368 5.40761 109.468C4.58526 109.569 3.75116 109.435 3.00238 109.08C2.2536 108.725 1.6209 108.165 1.17791 107.465C0.73491 106.765 0.499824 105.954 0.5 105.125V52.625C0.5 38.7011 6.03123 25.3476 15.8769 15.5019C25.7226 5.65623 39.0761 0.125 53 0.125C66.9239 0.125 80.2774 5.65623 90.1231 15.5019C99.9688 25.3476 105.5 38.7011 105.5 52.625ZM96.75 52.625C96.75 41.0218 92.1406 29.8938 83.9359 21.6891C75.7312 13.4844 64.6032 8.875 53 8.875C41.3968 8.875 30.2688 13.4844 22.0641 21.6891C13.8594 29.8938 9.25 41.0218 9.25 52.625V95.8937L18.1477 88.6148C18.9292 87.9756 19.9079 87.6263 20.9176 87.6263C21.9273 87.6263 22.9059 87.9756 23.6875 88.6148L36.9602 99.4703L50.2273 88.6148C51.0093 87.9742 51.9891 87.6241 53 87.6241C54.0109 87.6241 54.9907 87.9742 55.7727 88.6148L69.0398 99.4703L82.3125 88.6148C83.0941 87.9756 84.0727 87.6263 85.0824 87.6263C86.0921 87.6263 87.0708 87.9756 87.8523 88.6148L96.75 95.8937V52.625Z" fill="white"/>
</svg>
