<svg width="700" height="auto" viewBox="0 0 932 583" fill="none" xmlns="http://www.w3.org/2000/svg">
<g clip-path="url(#clip0_564_199)">
<mask id="mask0_564_199" style="mask-type:luminance" maskUnits="userSpaceOnUse" x="0" y="-114" width="932" height="932">
<path d="M932 -114L0 -114L0 818H932V-114Z" fill="white"/>
</mask>
<g mask="url(#mask0_564_199)">
<path d="M598.505 215.296C597.699 214.622 596.783 214.078 595.884 213.47L456.616 127.458C448.235 122.22 438.086 120.527 428.401 122.815L398.63 130.098C396.439 130.656 394.067 130.181 392.218 128.869L382.246 121.917C383.028 116.371 380.545 110.865 375.846 107.734L294.04 53.7786C287.355 49.2832 278.243 51.1179 273.734 57.8825C273.734 57.8825 273.649 57.9205 273.628 57.9983L149.72 247.141C145.286 253.91 147.139 262.951 153.914 267.394L235.793 321.073C237.077 321.942 238.576 322.572 240.062 322.964C246.147 324.569 252.624 322.107 256.063 316.816L367.51 146.796L375.656 152.638C384.362 158.65 395.163 160.743 405.418 158.301L435.19 151.018C437.289 150.52 439.469 150.861 441.282 152.02L580.317 238.342C584.087 240.691 585.263 245.701 582.907 249.469C582.799 249.591 582.674 249.778 582.566 249.901L579.964 253.453C577.597 256.688 573.092 257.702 569.601 255.729L498.971 216.498C484.712 208.582 467.025 210.795 455.218 221.985L427.292 248.38C425.386 250.155 422.838 250.921 420.324 250.409L336.628 234.605C328.772 232.828 320.878 237.792 319.106 245.657C317.32 253.578 322.297 261.392 330.153 263.169L331.143 263.431L414.84 279.234C426.631 281.588 438.836 278.064 447.605 269.782L475.527 243.401C478.043 241.038 481.867 240.601 484.914 242.245L555.209 281.599C571.653 290.697 592.212 286.206 603.395 271.069L605.995 267.524C618.368 251.028 614.994 227.668 598.505 215.296ZM239.637 288.712L182.262 250.874L290.289 86.0735L347.663 123.912L239.637 288.712Z" fill="#018A50"/>
<path d="M816.698 324.236L724.697 117.449C721.445 110.052 712.789 106.729 705.391 109.988L615.709 149.938C608.312 153.197 605.004 161.847 608.263 169.244L694.009 362.054C665.845 390.765 632.989 414.49 596.965 432.221L434.145 507.431C432.125 508.366 430.175 509.378 428.149 510.467C425.137 512.303 421.859 513.695 418.454 514.496C414.554 514.908 410.605 514.592 406.843 513.538C401.383 512.782 396.785 509.281 394.518 504.272L393.727 500.501C405.425 496.049 416.876 490.765 427.912 484.738C432.486 482.379 436.976 480.088 441.317 478.011L492.069 453.612C499.533 450.502 502.994 441.867 499.881 434.476C496.705 427.009 488.136 423.55 480.672 426.66C480.224 426.86 479.848 427.063 479.4 427.263L428.801 451.669C424.161 453.879 419.438 456.313 414.639 458.809C393.644 469.666 371.906 480.783 350.969 477.212C346.659 476.953 342.912 473.915 341.706 469.759C341.194 466.44 341.195 463.144 341.564 459.791L341.623 458.482L471.507 405.675C479.04 402.642 482.634 394.159 479.601 386.625C476.564 379.165 468.092 375.491 460.558 378.524L327.01 432.845C324.25 433.967 321.056 433.466 318.799 431.534L311.733 425.725C309.338 423.567 308.458 420.151 309.549 417.05C309.976 415.677 310.257 414.305 310.322 412.843C313.349 412.319 316.326 411.419 319.166 410.154L434.37 366.075C441.897 363.181 445.718 354.715 442.757 347.185C439.873 339.585 431.405 335.83 423.877 338.717L308.643 383.168C303.726 384.999 298.341 382.562 296.509 377.653C294.938 373.473 296.465 368.795 300.235 366.392L386.596 331.927C394.126 328.966 397.8 320.494 394.84 312.956C391.807 305.423 383.327 301.756 375.796 304.716L288.466 339.563L286.968 340.302C268.057 350.446 260.929 373.941 271.003 392.777C273.845 398.031 277.817 402.596 282.644 406.034C282.625 406.473 282.173 406.907 282.008 407.331C276.813 421.97 281.206 438.281 293.064 448.332L300.13 454.141C303.731 457.158 307.957 459.464 312.434 460.909C311.98 466.162 312.322 471.459 313.413 476.562C317.178 492.332 330.207 504.04 346.228 506.146C349.498 506.732 352.851 507.108 356.214 507.258C359.358 507.399 362.511 507.312 365.597 507.091L366.019 509.3C368.691 524.948 381.323 537.166 399.859 542.021C404.203 543.167 408.65 543.805 413.109 544.004C415.818 544.044 418.452 543.949 421.103 543.628C428.329 542.559 435.325 540.095 441.572 536.337L446.219 533.973L609.033 458.91C647.665 440.196 682.783 415.026 713.067 384.579C715.334 384.68 717.549 384.274 719.642 383.341L809.324 343.392C816.575 340.126 819.895 331.55 816.698 324.236ZM721.246 350.67L641.376 170.64L704.091 142.753L783.962 322.776L721.246 350.67Z" fill="#018A50"/>
</g>
</g>
<defs>
<clipPath id="clip0_564_199">
<rect width="932" height="932" fill="white" transform="translate(0 -114)"/>
</clipPath>
</defs>
</svg>
