<svg width="114" height="101" viewBox="0 0 114 101" fill="none" xmlns="http://www.w3.org/2000/svg">
<path d="M96.375 65.875C92.4952 65.8787 88.7263 67.1691 85.6585 69.5442C82.5906 71.9193 80.3973 75.2449 79.4219 79H26.375C21.7337 79 17.2825 77.1562 14.0006 73.8744C10.7187 70.5925 8.875 66.1413 8.875 61.5C8.875 56.8587 10.7187 52.4075 14.0006 49.1256C17.2825 45.8438 21.7337 44 26.375 44H78.875C84.6766 44 90.2406 41.6953 94.343 37.593C98.4453 33.4906 100.75 27.9266 100.75 22.125C100.75 16.3234 98.4453 10.7594 94.343 6.65704C90.2406 2.55468 84.6766 0.25 78.875 0.25H26.375C25.2147 0.25 24.1019 0.710937 23.2814 1.53141C22.4609 2.35188 22 3.46468 22 4.625C22 5.78532 22.4609 6.89812 23.2814 7.71859C24.1019 8.53906 25.2147 9 26.375 9H78.875C82.356 9 85.6944 10.3828 88.1558 12.8442C90.6172 15.3056 92 18.644 92 22.125C92 25.606 90.6172 28.9444 88.1558 31.4058C85.6944 33.8672 82.356 35.25 78.875 35.25H26.375C19.4131 35.25 12.7363 38.0156 7.81345 42.9384C2.89062 47.8613 0.125 54.5381 0.125 61.5C0.125 68.4619 2.89062 75.1387 7.81345 80.0616C12.7363 84.9844 19.4131 87.75 26.375 87.75H79.4219C80.2401 90.9188 81.9304 93.7947 84.301 96.051C86.6716 98.3073 89.6273 99.8537 92.8326 100.515C96.0379 101.175 99.3643 100.924 102.434 99.7894C105.504 98.6546 108.194 96.6818 110.198 94.095C112.203 91.5082 113.442 88.4111 113.775 85.1553C114.108 81.8996 113.522 78.6157 112.082 75.6767C110.642 72.7376 108.407 70.2612 105.631 68.5286C102.854 66.796 99.6477 65.8766 96.375 65.875ZM96.375 92.125C94.6444 92.125 92.9527 91.6118 91.5138 90.6504C90.0748 89.6889 88.9533 88.3223 88.2911 86.7235C87.6288 85.1246 87.4555 83.3653 87.7931 81.668C88.1307 79.9706 88.9641 78.4115 90.1878 77.1878C91.4115 75.9641 92.9706 75.1307 94.668 74.7931C96.3653 74.4555 98.1246 74.6288 99.7235 75.2911C101.322 75.9533 102.689 77.0748 103.65 78.5138C104.612 79.9527 105.125 81.6444 105.125 83.375C105.125 85.6956 104.203 87.9212 102.562 89.5622C100.921 91.2031 98.6956 92.125 96.375 92.125Z" fill="#023C12"/>
</svg>
