<svg width="475" height="175" viewBox="0 0 899 585" fill="none" xmlns="http://www.w3.org/2000/svg">
<path d="M709.679 422.956C707.038 423.206 704.502 424.119 702.308 425.611C700.115 427.103 698.333 429.126 697.131 431.491C694.114 437.4 689.652 442.45 684.16 446.171C678.669 449.893 672.325 452.166 665.719 452.778C659.113 453.391 652.46 452.323 646.377 449.675C640.295 447.026 634.981 442.882 630.929 437.629C626.877 432.376 624.22 426.183 623.203 419.628C622.187 413.072 622.844 406.365 625.115 400.132C627.385 393.898 631.195 388.34 636.19 383.974C641.185 379.608 647.203 376.575 653.684 375.158C656.279 374.595 658.69 373.383 660.691 371.637C662.692 369.891 664.219 367.667 665.129 365.172C666.039 362.677 666.303 359.992 665.897 357.368C665.49 354.743 664.426 352.264 662.803 350.162L611.51 283.656C606.411 277.045 598.895 272.731 590.616 271.661C582.336 270.592 573.97 272.856 567.36 277.954L510.933 321.474C509.57 319.226 508.079 317.057 506.47 314.978C500.551 307.327 493.132 300.965 484.667 296.283C476.203 291.601 466.871 288.697 457.245 287.749C443.928 286.452 430.516 288.953 418.562 294.964C406.608 300.975 396.601 310.249 389.7 321.712C382.799 333.175 379.287 346.359 379.569 359.736C379.851 373.113 383.917 386.136 391.295 397.298C393.707 400.92 396.442 404.315 399.468 407.443L343.026 450.974C336.415 456.073 332.1 463.589 331.031 471.868C329.962 480.148 332.226 488.514 337.324 495.124L376.037 545.319C373.79 546.683 371.621 548.173 369.542 549.782C361.892 555.702 355.531 563.122 350.849 571.586C346.166 580.05 343.262 589.382 342.312 599.008C341.332 608.673 342.368 618.435 345.353 627.679C348.339 636.923 353.21 645.448 359.658 652.713C370.972 665.537 386.537 673.845 403.488 676.109C420.439 678.372 437.638 674.44 451.922 665.035C455.549 662.631 458.946 659.896 462.067 656.863L500.732 706.995C505.83 713.606 513.346 717.921 521.626 718.99C529.906 720.059 538.271 717.795 544.882 712.697L769.216 539.677C775.827 534.578 780.141 527.063 781.211 518.783C782.28 510.503 780.016 502.138 774.917 495.527L723.624 429.021C722.002 426.914 719.871 425.253 717.433 424.193C714.994 423.132 712.327 422.707 709.679 422.956ZM749.991 514.751L525.658 687.771L474.365 621.265C472.743 619.162 470.616 617.502 468.181 616.442C465.746 615.382 463.082 614.956 460.437 615.202C457.793 615.449 455.254 616.36 453.057 617.852C450.859 619.344 449.076 621.368 447.871 623.735C444.854 629.644 440.393 634.694 434.901 638.416C429.409 642.137 423.065 644.41 416.459 645.023C409.853 645.635 403.2 644.567 397.117 641.919C391.035 639.27 385.721 635.126 381.669 629.873C377.618 624.62 374.96 618.428 373.943 611.872C372.927 605.316 373.584 598.609 375.855 592.376C378.126 586.142 381.935 580.584 386.93 576.218C391.925 571.852 397.943 568.819 404.424 567.402C407.019 566.839 409.43 565.628 411.431 563.881C413.432 562.135 414.959 559.911 415.869 557.416C416.78 554.921 417.044 552.236 416.637 549.612C416.23 546.987 415.166 544.508 413.543 542.406L362.25 475.9L434.987 419.801C437.091 418.179 438.75 416.052 439.81 413.617C440.87 411.182 441.297 408.518 441.05 405.874C440.804 403.229 439.892 400.69 438.4 398.493C436.908 396.296 434.884 394.512 432.517 393.307C426.609 390.291 421.559 385.829 417.837 380.337C414.115 374.845 411.843 368.501 411.23 361.895C410.618 355.29 411.685 348.636 414.334 342.554C416.983 336.471 421.126 331.157 426.379 327.105C431.633 323.054 437.825 320.396 444.381 319.38C450.937 318.363 457.643 319.021 463.877 321.291C470.11 323.562 475.668 327.372 480.035 332.366C484.401 337.361 487.433 343.379 488.85 349.86C489.414 352.455 490.625 354.866 492.371 356.867C494.117 358.869 496.341 360.395 498.836 361.306C501.331 362.216 504.016 362.48 506.641 362.073C509.265 361.667 511.744 360.602 513.847 358.98L586.584 302.88L625.309 353.091C621.583 355.339 618.074 357.929 614.828 360.827C601.115 373.041 592.682 390.104 591.308 408.417C589.935 426.729 595.728 444.859 607.465 458.983C619.202 473.106 635.966 482.119 654.221 484.119C672.476 486.12 690.794 480.952 705.311 469.705C707.396 468.103 709.388 466.384 711.278 464.556L749.991 514.751Z" fill="#005430"/>
<path d="M821.713 72.8743C821.949 75.5171 822.848 78.0576 824.328 80.2595C825.808 82.4615 827.821 84.2535 830.18 85.4691C836.072 88.5181 841.097 93.0073 844.789 98.5195C848.481 104.032 850.719 110.388 851.295 116.997C851.872 123.606 850.767 130.253 848.086 136.321C845.404 142.389 841.231 147.681 835.956 151.704C830.681 155.726 824.474 158.35 817.913 159.331C811.351 160.312 804.649 159.617 798.428 157.313C792.206 155.008 786.669 151.168 782.33 146.149C777.991 141.131 774.992 135.097 773.611 128.608C773.061 126.009 771.863 123.592 770.128 121.582C768.393 119.571 766.177 118.032 763.687 117.108C761.197 116.184 758.514 115.905 755.887 116.298C753.26 116.69 750.775 117.741 748.664 119.352L681.879 170.281C675.241 175.344 670.885 182.836 669.77 191.11C668.656 199.383 670.874 207.761 675.936 214.4L719.147 271.063C716.891 272.414 714.715 273.893 712.627 275.491C704.944 281.368 698.542 288.752 693.813 297.191C689.085 305.63 686.13 314.945 685.129 324.567C683.759 337.876 686.188 351.302 692.133 363.288C698.078 375.275 707.298 385.332 718.723 392.296C730.148 399.259 743.312 402.844 756.691 402.634C770.069 402.425 783.114 398.43 794.316 391.113C797.951 388.721 801.362 386.005 804.506 382.997L847.728 439.675C852.79 446.314 860.283 450.669 868.557 451.784C876.83 452.898 885.208 450.68 891.847 445.618L942.252 407.18C943.604 409.435 945.082 411.612 946.68 413.7C952.558 421.382 959.942 427.783 968.381 432.512C976.82 437.24 986.135 440.195 995.756 441.197C1005.41 442.23 1015.18 441.248 1024.44 438.313C1033.7 435.378 1042.25 430.554 1049.56 424.146C1062.44 412.901 1070.83 397.383 1073.19 380.444C1075.55 363.505 1071.71 346.285 1062.38 331.95C1060 328.31 1057.28 324.898 1054.26 321.761L1104.61 283.37C1111.25 278.308 1115.6 270.816 1116.72 262.542C1117.83 254.268 1115.61 245.89 1110.55 239.252L938.758 13.9761C933.695 7.33756 926.203 2.98196 917.929 1.86751C909.656 0.753045 901.278 2.97099 894.639 8.03344L827.854 58.9625C825.739 60.5737 824.066 62.6947 822.992 65.1275C821.918 67.5603 821.478 70.2255 821.713 72.8743ZM913.727 33.0641L1085.52 258.34L1018.73 309.269C1016.62 310.879 1014.95 312.997 1013.88 315.426C1012.8 317.855 1012.36 320.517 1012.6 323.163C1012.83 325.808 1013.72 328.352 1015.2 330.558C1016.68 332.763 1018.7 334.558 1021.06 335.775C1026.95 338.824 1031.98 343.314 1035.67 348.826C1039.36 354.338 1041.6 360.694 1042.17 367.303C1042.75 373.912 1041.65 380.56 1038.97 386.628C1036.28 392.696 1032.11 397.987 1026.84 402.01C1021.56 406.033 1015.35 408.656 1008.79 409.637C1002.23 410.618 995.528 409.924 989.307 407.619C983.086 405.314 977.549 401.474 973.21 396.456C968.871 391.437 965.871 385.403 964.49 378.914C963.941 376.316 962.743 373.899 961.007 371.888C959.272 369.877 957.056 368.338 954.566 367.414C952.076 366.49 949.393 366.212 946.766 366.604C944.14 366.996 941.655 368.047 939.543 369.658L872.759 420.587L817.058 347.545C815.448 345.432 813.33 343.762 810.9 342.688C808.471 341.615 805.809 341.174 803.164 341.406C800.518 341.638 797.974 342.536 795.769 344.016C793.563 345.496 791.768 347.51 790.551 349.87C787.502 355.762 783.013 360.788 777.501 364.479C771.988 368.171 765.632 370.409 759.023 370.985C752.414 371.562 745.767 370.458 739.699 367.776C733.631 365.094 728.339 360.922 724.317 355.646C720.294 350.371 717.67 344.164 716.689 337.603C715.709 331.042 716.403 324.339 718.707 318.118C721.012 311.897 724.852 306.359 729.871 302.021C734.889 297.682 740.923 294.682 747.412 293.301C750.011 292.751 752.428 291.553 754.438 289.818C756.449 288.083 757.988 285.867 758.912 283.377C759.836 280.887 760.115 278.204 759.722 275.577C759.33 272.95 758.279 270.466 756.668 268.354L700.967 195.312L751.388 156.861C753.616 160.6 756.186 164.123 759.067 167.385C771.206 181.164 788.223 189.69 806.528 191.164C824.832 192.638 842.994 186.944 857.181 175.284C871.369 163.624 880.473 146.909 882.573 128.666C884.673 110.422 879.605 92.0763 868.438 77.4976C866.847 75.4041 865.139 73.4026 863.322 71.5024L913.727 33.0641Z" fill="#005430"/>
<path d="M359.849 294.611C359.572 291.972 358.633 289.446 357.118 287.268C355.603 285.089 353.562 283.329 351.185 282.151C345.246 279.195 340.15 274.785 336.372 269.332C332.594 263.879 330.256 257.559 329.576 250.96C328.895 244.36 329.895 237.696 332.48 231.587C335.066 225.477 339.155 220.121 344.366 216.016C349.578 211.91 355.742 209.189 362.287 208.105C368.832 207.021 375.545 207.61 381.802 209.816C388.058 212.022 393.656 215.775 398.073 220.724C402.49 225.674 405.585 231.66 407.068 238.126C407.658 240.716 408.894 243.114 410.661 245.097C412.427 247.08 414.667 248.584 417.171 249.468C419.676 250.353 422.363 250.589 424.983 250.156C427.604 249.722 430.071 248.632 432.157 246.988L498.132 195.013C504.69 189.847 508.927 182.287 509.911 173.997C510.895 165.706 508.545 157.365 503.379 150.807L459.281 94.8313C461.515 93.4444 463.668 91.932 465.731 90.3014C473.32 84.3039 479.605 76.8197 484.2 68.3074C488.795 59.7952 491.603 50.4342 492.452 40.7984C493.612 27.4687 490.972 14.0832 484.839 2.19174C478.705 -9.69968 469.329 -19.6105 457.796 -26.3931C446.262 -33.1757 433.043 -36.5525 419.67 -36.1325C406.296 -35.7126 393.315 -31.5131 382.23 -24.0203C378.633 -21.5716 375.266 -18.8015 372.17 -15.7442L328.06 -71.7351C322.894 -78.2931 315.334 -82.5301 307.043 -83.5141C298.753 -84.4981 290.411 -82.1485 283.853 -76.9821L234.06 -37.7546C232.673 -39.9884 231.16 -42.1417 229.53 -44.2042C223.531 -51.7929 216.047 -58.0771 207.535 -62.6719C199.023 -67.2667 189.662 -70.0753 180.027 -70.9256C170.352 -71.806 160.601 -70.6701 151.388 -67.5896C142.175 -64.5091 133.702 -59.551 126.503 -53.0286C113.796 -41.5824 105.649 -25.9336 103.56 -8.95983C101.47 8.01395 105.579 25.1714 115.131 39.3573C117.572 42.9601 120.342 46.328 123.407 49.4176L73.675 88.5964C67.117 93.7628 62.88 101.323 61.896 109.613C60.9119 117.903 63.2616 126.245 68.428 132.803L243.746 355.345C248.913 361.903 256.473 366.14 264.763 367.124C273.053 368.108 281.395 365.758 287.953 360.592L353.928 308.617C356.017 306.973 357.657 304.826 358.692 302.377C359.728 299.927 360.126 297.255 359.849 294.611ZM268.473 335.865L93.1548 113.323L159.129 61.3487C161.216 59.7058 162.853 57.5616 163.888 55.1156C164.923 52.6697 165.322 50.0017 165.049 47.3599C164.775 44.7181 163.837 42.1886 162.323 40.0068C160.808 37.8251 158.766 36.0621 156.387 34.882C150.447 31.9262 145.352 27.5167 141.574 22.0634C137.796 16.6101 135.458 10.29 134.777 3.69085C134.097 -2.90835 135.096 -9.57245 137.682 -15.6819C140.268 -21.7914 144.357 -27.1478 149.568 -31.2533C154.779 -35.3587 160.944 -38.0799 167.489 -39.1638C174.034 -40.2477 180.747 -39.6591 187.004 -37.4529C193.26 -35.2466 198.857 -31.4942 203.275 -26.5445C207.692 -21.5949 210.786 -15.6087 212.27 -9.14246C212.86 -6.55299 214.096 -4.15502 215.862 -2.17186C217.629 -0.188697 219.869 1.31518 222.373 2.19971C224.877 3.08425 227.565 3.32069 230.185 2.887C232.805 2.45331 235.273 1.36361 237.359 -0.280627L303.333 -52.2553L360.178 19.9009C361.821 21.9877 363.965 23.6248 366.411 24.6598C368.857 25.6948 371.525 26.094 374.167 25.8203C376.808 25.5466 379.338 24.6088 381.52 23.0942C383.701 21.5797 385.464 19.5377 386.645 17.1584C389.6 11.2191 394.01 6.12351 399.463 2.34544C404.916 -1.43262 411.237 -3.77052 417.836 -4.45091C424.435 -5.13131 431.099 -4.1321 437.208 -1.54619C443.318 1.03971 448.674 5.12838 452.78 10.3397C456.885 15.551 459.606 21.7157 460.69 28.2607C461.774 34.8058 461.186 41.5186 458.979 47.7752C456.773 54.0317 453.021 59.6289 448.071 64.0462C443.121 68.4636 437.135 71.5578 430.669 73.0411C428.08 73.6315 425.682 74.8675 423.698 76.6341C421.715 78.4007 420.211 80.6404 419.327 83.1447C418.442 85.649 418.206 88.3364 418.64 90.9566C419.073 93.5769 420.163 96.0448 421.807 98.1305L478.652 170.287L428.843 209.526C426.556 205.824 423.93 202.342 420.999 199.125C408.644 185.539 391.495 177.282 373.17 176.097C354.844 174.911 336.774 180.89 322.772 192.772C308.77 204.654 299.931 221.51 298.118 239.785C296.306 258.059 301.662 276.323 313.057 290.724C314.681 292.792 316.42 294.766 318.267 296.638L268.473 335.865Z" fill="#005430"/>
</svg>
